<svg width="335" height="32" viewBox="0 0 335 32" version="1.1" xmlns="http://www.w3.org/2000/svg" xmlns:xlink="http://www.w3.org/1999/xlink">
<g id="Canvas" fill="none">
<g id="Group 60">
<rect id="Rectangle 21" opacity="0.5" width="1" height="32" transform="translate(126 0)" fill="#313847"/>
<g id="Group 58">
<g id="alnw">
<g id="Page 1">
<g id="ALNW Vector Logo (2)">
<g id="Group 10">
<path id="Fill 1" fill-rule="evenodd" clip-rule="evenodd" d="M 1.80388 7.32258e-10L 3.96916 7.32258e-10L 2.2169 14.6598L 4.01696e-08 14.6598L 1.80388 7.32258e-10Z" transform="translate(41.3896 0)" fill="#313847"/>
<path id="Fill 3" fill-rule="evenodd" clip-rule="evenodd" d="M 1.75489 7.32258e-10L 4.64558 7.32258e-10L 3.14868 12.3878L 7.89985 12.3886L 7.5876 14.6598L 8.71736e-10 14.6598L 1.75489 7.32258e-10Z" transform="translate(32.6641 0)" fill="#313847"/>
<path id="Fill 4" fill-rule="evenodd" clip-rule="evenodd" d="M 8.76845 -5.17741e-07L 8.69108 0.411994L 4.43278 0.411994L 2.70363 14.7613L 2.13588 14.7613C 2.13588 14.7613 3.84426 0.702161 3.86503 0.413165L 0 0.413165L 0.0710778 -5.17741e-07L 8.76845 -5.17741e-07Z" transform="translate(101.216 16.8535)" fill="#313847"/>
<path id="Fill 5" fill-rule="evenodd" clip-rule="evenodd" d="M 0.357881 7.14126e-08L 4.42825 7.14126e-08L 4.07051 3.97457L 9.1051e-07 3.97457L 0.357881 7.14126e-08Z" transform="translate(65.2852 10.3745)" fill="#313847"/>
<path id="Fill 6" fill-rule="evenodd" clip-rule="evenodd" d="M 9.18498 0.980772L 3.2749 0.980772L 2.68125 5.78094L 8.35572 5.78138L 8.22995 6.91645L 2.47489 6.91645L 1.54575 14.6598L -4.28475e-07 14.6598L 1.85537 7.32258e-10L 9.28823 7.32258e-10L 9.18498 0.980772Z" transform="translate(45.5195 0)" fill="#313847"/>
<path id="Fill 7" fill-rule="evenodd" clip-rule="evenodd" d="M 0.0773672 7.32258e-10L 9.29101 7.32258e-10L 9.2135 0.722636L 5.13582 0.722636L 3.33296 14.6598L 2.22305 14.6598L 4.00031 0.722636L 5.89154e-07 0.722636L 0.0773672 7.32258e-10Z" transform="translate(55.1943 0)" fill="#313847"/>
<path id="Fill 8" fill-rule="evenodd" clip-rule="evenodd" d="M 0.23225 -5.35594e-08L 9.44575 -5.35594e-08L 9.2135 1.80666L 6.06496 1.80666L 4.41684 14.6601L 1.57427 14.6601L 3.19665 1.80666L 9.3729e-08 1.80666L 0.23225 -5.35594e-08Z" transform="translate(41.1035 16.9302)" fill="#313847"/>
<path id="Fill 9" fill-rule="evenodd" clip-rule="evenodd" d="M 10.4746 5.77758L 11.1446 0.00160832L 13.1574 0.00160832L 11.3481 14.6559L 9.28692 14.6559L 10.1517 7.27579L 3.04221 7.27682L 2.06158 14.6598L -3.21357e-07 14.6598L 1.85507 4.19549e-07L 3.8681 4.19549e-07L 3.09384 5.77802L 10.4746 5.77758Z" transform="translate(49.1328 16.9312)" fill="#313847"/>
</g>
<g id="Group 14">
<mask id="mask0" mask-type="alpha" maskUnits="userSpaceOnUse" x="0" y="16" width="102" height="16">
<g id="mask 2">
<path id="Vector" d="M -1.96141e-10 -2.65008e-09L 101.115 -2.65008e-09L 101.115 15.555L -1.96141e-10 15.555L -1.96141e-10 -2.65008e-09Z" transform="translate(0 16.3462)" fill="#313847"/>
</g>
</mask>
<g mask="url(#mask0)">
<path id="Fill 11" fill-rule="evenodd" clip-rule="evenodd" d="M 9.93423 2.13032C 9.3893 0.823989 8.04917 -2.65008e-09 6.51279 -2.65008e-09C 4.22846 -2.65008e-09 2.38904 1.58787 2.07401 3.83856C 1.90509 5.04456 2.34736 5.92866 3.2708 6.55155L 5.8175 7.99872C 7.0415 8.64165 8.69898 9.36531 8.46 11.0734C 8.17861 13.0831 6.20025 14.6506 4.19907 14.6506C 2.3595 14.6506 1.32432 13.5252 0.902525 11.9176L 4.14193e-06 12.2991C 0.434668 14.2487 1.90948 15.555 4.03205 15.555C 6.49831 15.555 9.06725 13.666 9.41898 11.1537C 9.61028 9.78725 9.15353 8.86278 8.10241 8.13927L 5.40244 6.63184C 4.25084 6.04917 2.82765 5.3862 3.04981 3.79848C 3.27212 2.21091 4.68814 0.904282 6.32559 0.904282C 7.76077 0.904282 8.63273 1.6079 9.16801 2.6931L 9.93423 2.13032Z" transform="translate(91.1807 16.3462)" fill="#313847"/>
<path id="Fill 13" fill-rule="evenodd" clip-rule="evenodd" d="M 14.0912 14.6598L 9.23924 14.6598L 5.8842 8.87682L 5.10993 14.6598L 0 14.6598L 1.70341 1.11582e-09L 6.91645 1.11582e-09L 9.96187 5.57355L 10.9425 1.11582e-09L 16.0526 1.11582e-09L 14.0912 14.6598Z" transform="translate(-0.00878906 16.9312)" fill="#313847"/>
</g>
</g>
<g id="Group 25">
<path id="Fill 15" fill-rule="evenodd" clip-rule="evenodd" d="M 24.9625 2.46787L 25.3603 2.47753C 26.898 2.36476 28.3539 2.578 28.1369 4.3873C 27.922 6.17729 26.3808 6.72018 24.8109 6.73597L 24.4428 6.73963L 24.9625 2.46787ZM 28.2356 7.32258e-10C 29.7015 7.32258e-10 31.7404 1.70516 31.434 4.2583C 31.1244 6.83908 29.9114 7.38109 27.9241 8.72311C 27.9241 8.72311 28.9977 10.4252 31.5373 14.6579L 27.4078 14.6579C 26.8089 13.9803 24.7757 9.70389 24.7757 9.70389L 24.0529 9.70447L 23.4868 14.6598L 19.8721 14.6598L 21.6285 7.32258e-10L 28.2356 7.32258e-10ZM 8.46497 5.78094L 9.05847 9.60063L 6.81319 9.60121L 8.46497 5.78094ZM 6.65831 7.32258e-10L 11.9748 7.32258e-10L 14.4524 12.9557L 16.1051 7.32258e-10L 20.1301 7.32258e-10L 18.3764 14.6598L 9.78111 14.6598L 9.47134 12.5952L 5.6518 12.5952L 4.69691 14.6598L 3.39977e-10 14.6598L 6.65831 7.32258e-10Z" transform="translate(0.878906 0)" fill="#313847"/>
<path id="Fill 17" fill-rule="evenodd" clip-rule="evenodd" d="M 8.69825 3.77055C 10.8885 3.77055 12.4218 5.54109 12.133 7.47952C 11.7719 9.90264 9.71105 11.6732 7.52077 11.6732C 5.33048 11.6732 3.79731 9.90264 4.15826 7.47952C 4.44711 5.54109 6.50811 3.77055 8.69825 3.77055ZM 9.25927 -9.81923e-08C 5.07278 -9.81923e-08 0.756274 3.07336 0.10384 7.45291C -0.594518 12.1399 2.2893 15.4437 6.95813 15.4437C 11.6271 15.4437 15.4955 12.1399 16.1939 7.45291C 16.8464 3.07336 13.4458 -9.81923e-08 9.25927 -9.81923e-08Z" transform="translate(14.6641 16.5562)" fill="#313847"/>
<path id="Fill 18" fill-rule="evenodd" clip-rule="evenodd" d="M 0.357735 2.23164e-09L 4.4281 2.23164e-09L 4.07051 3.97457L 2.57085e-06 3.97457L 0.357735 2.23164e-09Z" transform="translate(76.458 0.290039)" fill="#313847"/>
<path id="Fill 19" fill-rule="evenodd" clip-rule="evenodd" d="M 0.357588 -4.28475e-07L 4.4281 -4.28475e-07L 4.07052 3.97442L -2.07096e-06 3.97442L 0.357588 -4.28475e-07Z" transform="translate(75.2197 10.3613)" fill="#313847"/>
<path id="Fill 20" fill-rule="evenodd" clip-rule="evenodd" d="M 0.35759 2.23164e-09L 4.4281 2.23164e-09L 4.07037 3.97457L 1.07119e-07 3.97457L 0.35759 2.23164e-09Z" transform="translate(66.5479 0.290039)" fill="#313847"/>
<path id="Fill 21" fill-rule="evenodd" clip-rule="evenodd" d="M 22.05 4.19549e-07L 13.5712 14.7429L 10.4226 4.26474L 4.48675 14.7944L 1.21401e-06 0.0333456L 1.85419 0.0321751L 4.95549 10.357L 10.6289 0.0333456L 11.1452 0.0333456L 14.2469 10.5636L 20.3071 0.00658153L 22.05 4.19549e-07Z" transform="translate(62.6377 16.8945)" fill="#313847"/>
<path id="Fill 22" fill-rule="evenodd" clip-rule="evenodd" d="M 1.72944 -4.19549e-07L 9.44575 -4.19549e-07L 9.31675 0.903258L 2.89054 0.903258L 2.2969 5.85845L 8.74899 5.85845L 8.61985 6.76157L 2.16791 6.76157L 1.31628 13.704L 7.66497 13.704L 7.53597 14.6847L -2.14238e-07 14.6847L 1.72944 -4.19549e-07Z" transform="translate(83.2588 16.9043)" fill="#313847"/>
<path id="Fill 23" fill-rule="evenodd" clip-rule="evenodd" d="M 4.85925 2.46802L 5.25706 2.47767C 6.79477 2.36491 8.25071 2.57829 8.03353 4.38759C 7.81883 6.17743 6.27747 6.72047 4.70774 6.73583L 4.33947 6.73963L 4.85925 2.46802ZM 8.36362 -5.35594e-08C 9.82952 -5.35594e-08 11.8684 1.70531 11.562 4.25845C 11.2524 6.83923 10.0394 7.38124 8.0521 8.72311C 8.0521 8.72311 9.1256 10.4253 11.6653 14.6581L 7.53583 14.6581C 6.93692 13.9803 4.90357 9.70374 4.90357 9.70374L 4.18093 9.70461L 3.61464 14.6601L -5.71301e-07 14.6601L 1.75635 -5.35594e-08L 8.36362 -5.35594e-08Z" transform="translate(29.6104 16.9302)" fill="#313847"/>
<path id="Fill 24" fill-rule="evenodd" clip-rule="evenodd" d="M 1.41821 1.59445L 1.41821 1.08461L 1.94648 1.08461C 2.15971 1.08461 2.42853 1.12176 2.42853 1.32564C 2.42853 1.64067 1.99753 1.59445 1.75197 1.59445L 1.41821 1.59445ZM 2.08104 1.87262C 2.43321 1.86326 2.70685 1.7195 2.70685 1.33017C 2.70685 0.903696 2.35921 0.806584 2.00221 0.806584L 1.14018 0.806584L 1.14018 2.78553L 1.41821 2.78553L 1.41821 1.87262L 1.75197 1.87262L 2.34516 2.78553L 2.67891 2.78553L 2.08104 1.87262ZM 1.8169 3.3372C 0.987206 3.3372 0.27803 2.66049 0.27803 1.80783C 0.27803 0.954886 0.987206 0.278174 1.8169 0.278174C 2.64645 0.278174 3.35563 0.954886 3.35563 1.80783C 3.35563 2.66049 2.64645 3.3372 1.8169 3.3372ZM 1.8169 3.61537C 2.83189 3.61537 3.63365 2.81361 3.63365 1.80783C 3.63365 0.801759 2.83189 -7.49832e-07 1.8169 -7.49832e-07C 0.801757 -7.49832e-07 2.57085e-06 0.801759 2.57085e-06 1.80783C 2.57085e-06 2.81361 0.801757 3.61537 1.8169 3.61537Z" transform="translate(106.312 28.1865)" fill="#313847"/>
</g>
</g>
</g>
</g>
</g>
<g id="Group 59">
<g id="ischool-primary-white">
<g id="Group">
<path id="Vector_2" d="M 1.63075 12.0296L 1.0226e-06 12.0296L 1.0226e-06 1.49129e-07L 1.61958 1.49129e-07L 1.63075 12.0296Z" transform="translate(184.004 1.66357)" fill="#313847"/>
<path id="Vector_3" d="M 7.13733 9.01429L 5.66296 9.01429L 5.66296 3.6194C 5.70362 3.01875 5.56357 2.41967 5.26085 1.89929C 5.08211 1.68834 4.85393 1.5249 4.59667 1.42355C 4.33941 1.32221 4.06107 1.28611 3.78647 1.31848C 3.54043 1.32149 3.29603 1.35909 3.06045 1.43017C 2.77574 1.51748 2.51556 1.67053 2.30092 1.87695C 2.04348 2.1303 1.84184 2.43466 1.70894 2.77052C 1.53136 3.23339 1.44782 3.72702 1.46321 4.22256L 1.46321 9.00312L 1.19304e-06 9.00312L 1.19304e-06 0.2462L 1.39619 0.2462L 1.39619 1.48602C 1.47066 1.37432 1.58235 1.23284 1.73128 1.06158C 1.89223 0.875306 2.07613 0.710171 2.27858 0.570117C 2.51345 0.404037 2.76873 0.268892 3.03811 0.168014C 3.36008 0.0509739 3.70085 -0.00581909 4.04337 0.000471248C 4.39689 0.00135255 4.74914 0.0425738 5.09331 0.123336C 5.45295 0.205069 5.79156 0.361053 6.0874 0.581287C 6.40536 0.825253 6.65852 1.14361 6.82459 1.50836C 7.03306 1.99078 7.13223 2.51333 7.115 3.03858L 7.13733 9.01429Z" transform="translate(188.852 4.67822)" fill="#313847"/>
<path id="Vector_4" d="M 2.68069 4.66324L 2.68069 12.2027L 1.20631 12.2027L 1.20631 4.66324L -1.87477e-06 4.66324L -1.87477e-06 3.43459L 1.20631 3.43459L 1.20631 1.92671C 1.18286 1.65343 1.22425 1.37848 1.32712 1.12423C 1.42999 0.86997 1.59142 0.643587 1.79829 0.463498C 2.29427 0.128297 2.8875 -0.0327762 3.4849 0.00554681L 3.80881 0.00554681L 4.15507 0.00554681L 4.15507 1.35706L 3.85349 1.35706L 3.55191 1.35706C 3.42714 1.34361 3.30094 1.35874 3.18289 1.40132C 3.06484 1.4439 2.95804 1.51279 2.87057 1.60279C 2.72291 1.83539 2.65616 2.11024 2.68069 2.38466L 2.68069 3.50161L 4.17741 3.50161L 4.17741 4.66324L 2.68069 4.66324Z" transform="translate(197.932 1.48975)" fill="#313847"/>
<path id="Vector_5" d="M 5.11301e-07 4.67747C 0.000747611 4.1064 0.0835036 3.5384 0.245732 2.99087C 0.399993 2.4532 0.653842 1.94929 0.994089 1.50532C 1.35966 1.03652 1.82734 0.657278 2.36154 0.396429C 2.89574 0.13558 3.48239 3.9186e-07 4.07688 3.9186e-07C 4.67136 3.9186e-07 5.25802 0.13558 5.79222 0.396429C 6.32642 0.657278 6.7941 1.03652 7.15967 1.50532C 7.49992 1.94929 7.75377 2.4532 7.90803 2.99087C 8.22823 4.08487 8.22823 5.24772 7.90803 6.34173C 7.75377 6.87939 7.49992 7.38331 7.15967 7.82728C 6.7941 8.29607 6.32642 8.67531 5.79222 8.93616C 5.25802 9.19701 4.67136 9.33259 4.07688 9.33259C 3.48239 9.33259 2.89574 9.19701 2.36154 8.93616C 1.82734 8.67531 1.35966 8.29607 0.994089 7.82728C 0.653842 7.38331 0.399993 6.87939 0.245732 6.34173C 0.0854583 5.8014 0.00272111 5.24105 5.11301e-07 4.67747ZM 1.53023 4.67747C 1.53483 5.01851 1.56846 5.35855 1.63075 5.69389C 1.69598 6.08433 1.82424 6.46157 2.01052 6.81085C 2.19819 7.16233 2.46605 7.46463 2.79238 7.69324C 3.18147 7.92882 3.62762 8.05337 4.08247 8.05337C 4.53731 8.05337 4.98347 7.92882 5.37255 7.69324C 5.69888 7.46463 5.96674 7.16233 6.15441 6.81085C 6.34069 6.46157 6.46896 6.08433 6.53418 5.69389C 6.59653 5.35856 6.63016 5.01852 6.6347 4.67747C 6.63005 4.33642 6.59642 3.99639 6.53418 3.66104C 6.46877 3.27065 6.34051 2.89344 6.15441 2.54408C 5.9664 2.19284 5.6986 1.89062 5.37255 1.66169C 4.98347 1.42611 4.53731 1.30157 4.08247 1.30157C 3.62762 1.30157 3.18147 1.42611 2.79238 1.66169C 2.46633 1.89062 2.19853 2.19284 2.01052 2.54408C 1.82442 2.89344 1.69617 3.27065 1.63075 3.66104C 1.56482 3.99607 1.52745 4.33611 1.51906 4.67747L 1.53023 4.67747Z" transform="translate(203.528 4.62598)" fill="#313847"/>
<path id="Vector_6" d="M 1.47438 8.99226L -2.72694e-06 8.99226L -2.72694e-06 0.224172L 1.39619 0.224172L 1.39619 1.67621C 1.66475 1.20992 2.02134 0.800225 2.44613 0.469902C 2.85411 0.152903 3.35935 -0.0128803 3.87583 0.000781581L 4.09922 0.000781581L 4.26676 0.000781581L 4.26676 1.58686L 3.70828 1.58686C 3.39006 1.5797 3.07398 1.64063 2.78122 1.76557C 2.51298 1.88517 2.27314 2.06029 2.07753 2.27937C 1.88294 2.49856 1.73137 2.75244 1.63075 3.02773C 1.52557 3.31382 1.4726 3.61648 1.47438 3.92129L 1.47438 8.99226Z" transform="translate(214.184 4.70068)" fill="#313847"/>
<path id="Vector_7" d="M 6.81734e-07 0.247182L 1.38502 0.247182L 1.38502 1.487L 1.70894 1.06256C 1.86201 0.876798 2.03847 0.711608 2.23391 0.571099C 2.46737 0.402752 2.72296 0.267441 2.99344 0.168996C 3.33729 0.0467801 3.70097 -0.0100442 4.06571 0.00145336C 4.40021 -0.00771147 4.73349 0.045311 5.04863 0.157826C 5.28991 0.249858 5.51587 0.377898 5.71881 0.537591C 5.88274 0.668801 6.02258 0.827543 6.13207 1.00671L 6.38898 1.43115C 6.56769 1.2301 6.7464 1.04022 6.92511 0.861507C 7.09609 0.686729 7.28733 0.532991 7.49476 0.403556C 7.71122 0.275518 7.94423 0.177802 8.18727 0.113148C 8.47513 0.036872 8.77188 -0.000689984 9.06967 0.00145336C 9.34541 0.00946143 9.61918 0.0507142 9.88504 0.124318C 10.2055 0.20854 10.5057 0.356715 10.7674 0.55993C 11.0704 0.799699 11.3149 1.10527 11.4823 1.45349C 11.6928 1.92346 11.7922 2.43562 11.7727 2.95021L 11.7727 9.01527L 10.3207 9.01527L 10.3207 3.35231C 10.3418 2.84204 10.222 2.3358 9.9744 1.8891C 9.82925 1.69026 9.63372 1.53369 9.40794 1.43553C 9.18217 1.33737 8.93432 1.30116 8.6899 1.33063C 8.39457 1.32555 8.10269 1.39468 7.84101 1.53168C 7.59231 1.66186 7.37208 1.84033 7.19319 2.05665C 7.01333 2.28042 6.87351 2.5336 6.77991 2.80501C 6.68305 3.08137 6.63395 3.37221 6.63471 3.66506L 6.63471 9.01527L 5.18266 9.01527L 5.18266 2.95021C 5.18241 2.76267 5.1637 2.57561 5.12681 2.39173C 5.09149 2.20443 5.01937 2.026 4.9146 1.86677C 4.8042 1.70923 4.65895 1.57927 4.49015 1.487C 4.28296 1.38179 4.05214 1.33178 3.81998 1.3418C 3.57768 1.34585 3.33712 1.38344 3.10513 1.45349C 2.82042 1.5408 2.56024 1.69385 2.3456 1.90027C 2.08816 2.15362 1.88651 2.45798 1.75362 2.79384C 1.57604 3.25672 1.4925 3.75034 1.50789 4.24588L 1.50789 9.02644L 6.81734e-07 9.02644L 6.81734e-07 0.247182Z" transform="translate(220.384 4.67773)" fill="#313847"/>
<path id="Vector_8" d="M 0.435853 2.91562C 0.431323 2.45394 0.526575 1.99673 0.715091 1.57527C 0.883848 1.2184 1.13685 0.9079 1.45228 0.670539C 1.78601 0.425482 2.166 0.250689 2.56924 0.15674C 3.04917 0.047532 3.54027 -0.00495104 4.03244 0.000367619L 4.51274 0.000367619C 4.74215 0.0218679 4.96981 0.0591879 5.19408 0.112062C 5.44667 0.171732 5.6934 0.253973 5.93127 0.357792C 6.17763 0.464163 6.40422 0.611445 6.60144 0.793405C 6.82755 0.999283 7.00648 1.25159 7.12601 1.53306C 7.24554 1.81452 7.30282 2.11849 7.29395 2.42416L 7.29395 7.46162C 7.29395 7.80787 7.45032 7.97542 7.78541 7.97542L 8.00881 7.97542L 8.2657 7.97542L 8.2657 9.09237L 7.8971 9.20406C 7.75561 9.24483 7.6087 9.26367 7.46149 9.25991C 7.19563 9.26582 6.93086 9.22421 6.67963 9.13705C 6.50429 9.07613 6.34689 8.97249 6.22167 8.83547C 6.11735 8.71183 6.04113 8.56702 5.99829 8.41103C 5.95188 8.25067 5.92194 8.086 5.90893 7.91957C 5.76372 8.07594 5.59619 8.24349 5.41747 8.39986C 5.21694 8.57836 4.99569 8.73211 4.75847 8.85781C 4.47855 9.0066 4.18248 9.12278 3.87607 9.20406C 3.51107 9.29659 3.13565 9.34164 2.75912 9.3381C 2.37912 9.34569 2.00083 9.28516 1.64216 9.15939C 1.32095 9.04674 1.02495 8.87218 0.770942 8.64559C 0.526512 8.42504 0.332254 8.15461 0.201293 7.85255C 0.0638217 7.52764 -0.00464276 7.17771 0.000241351 6.82495C 0.00691724 6.59234 0.0330706 6.36069 0.0784278 6.13244C 0.135735 5.82912 0.253496 5.54043 0.424689 5.28356C 0.631359 4.97931 0.902017 4.7239 1.21773 4.5352C 1.66295 4.27939 2.15833 4.12315 2.66976 4.07725L 5.10472 3.77567L 5.37279 3.71982C 5.46815 3.69111 5.55591 3.64151 5.62969 3.57462C 5.71669 3.49114 5.78189 3.38758 5.81957 3.27304C 5.86977 3.10275 5.8924 2.92552 5.88659 2.74807C 5.88659 1.80239 5.19781 1.32954 3.82023 1.32954C 3.47354 1.31557 3.12766 1.37258 2.8038 1.49708C 2.57943 1.59077 2.3804 1.73622 2.22299 1.92153C 2.08906 2.0859 1.99023 2.27597 1.93257 2.48C 1.88196 2.65945 1.84463 2.84238 1.82088 3.02731L 0.435853 2.91562ZM 5.83074 4.54637L 5.61852 4.6804C 5.48964 4.73666 5.35473 4.77788 5.21642 4.80327L 4.52391 4.9373L 3.40695 5.09368L 2.81497 5.20537C 2.60131 5.25265 2.39477 5.32775 2.20064 5.42876C 2.01121 5.52822 1.84695 5.66956 1.72035 5.84203C 1.58492 6.04258 1.51829 6.28169 1.53047 6.52338C 1.50756 6.93084 1.64371 7.33128 1.91023 7.64033C 2.07438 7.78782 2.26731 7.8997 2.47685 7.96891C 2.6864 8.03811 2.90801 8.06315 3.12771 8.04243C 3.46902 8.04454 3.80844 7.99174 4.13298 7.88606C 4.44095 7.78738 4.73125 7.64034 4.99303 7.45045C 5.23739 7.27583 5.44594 7.0559 5.60735 6.80261C 5.76197 6.55887 5.84338 6.27588 5.84191 5.98724L 5.83074 4.54637Z" transform="translate(234.568 4.67871)" fill="#313847"/>
<path id="Vector_9" d="M 2.70303 3.67478L 2.70303 9.39358C 2.69552 9.5297 2.72649 9.66518 2.79239 9.78451C 2.84849 9.87638 2.92994 9.95008 3.02695 9.99673C 3.11778 10.0413 3.21641 10.0679 3.31736 10.0749L 4.11039 10.0749L 4.11039 11.1919L 3.41788 11.2701L 3.0046 11.2701C 2.7002 11.2793 2.39686 11.23 2.11104 11.1249C 1.90066 11.0447 1.71555 10.9097 1.5749 10.7339C 1.44295 10.5588 1.35141 10.3566 1.30684 10.1419C 1.25384 9.89604 1.22763 9.64512 1.22865 9.39358L 1.22865 3.67478L 2.0452e-06 3.67478L 2.0452e-06 2.44613L 1.18397 2.44613L 1.18397 1.70434e-07L 2.70303 1.70434e-07L 2.70303 2.44613L 4.11039 2.44613L 4.11039 3.67478L 2.70303 3.67478Z" transform="translate(244.085 2.47852)" fill="#313847"/>
<path id="Vector_10" d="M -3.74954e-06 1.67543L -3.74954e-06 1.49129e-07L 1.47437 1.49129e-07L 1.47437 1.67543L -3.74954e-06 1.67543ZM 1.47437 12.0296L -3.74954e-06 12.0296L -3.74954e-06 3.2615L 1.47437 3.2615L 1.47437 12.0296Z" transform="translate(250.44 1.66357)" fill="#313847"/>
<path id="Vector_11" d="M -2.72694e-06 4.68146C 0.000898443 4.1104 0.0836513 3.54243 0.245728 2.99486C 0.399989 2.45719 0.653839 1.95328 0.994085 1.50931C 1.33201 1.06743 1.76289 0.705194 2.25625 0.448202C 3.06822 0.021815 4.00425 -0.105528 4.90062 0.0884474C 5.79699 0.282423 6.59663 0.785367 7.15967 1.50931C 7.49992 1.95328 7.75377 2.45719 7.90803 2.99486C 8.2276 4.08895 8.2276 5.25162 7.90803 6.34572C 7.75377 6.88338 7.49992 7.3873 7.15967 7.83127C 6.7941 8.30006 6.32643 8.67931 5.79223 8.94016C 5.25802 9.201 4.67136 9.33658 4.07688 9.33658C 3.48239 9.33658 2.89574 9.201 2.36154 8.94016C 1.82734 8.67931 1.35966 8.30006 0.994085 7.83127C 0.653839 7.3873 0.399989 6.88338 0.245728 6.34572C 0.0857494 5.80533 0.00301844 5.24502 -2.72694e-06 4.68146ZM 1.53023 4.68146C 1.53504 5.02249 1.56867 5.36251 1.63075 5.69788C 1.69617 6.08827 1.82442 6.46548 2.01052 6.81484C 2.19887 7.16584 2.4666 7.468 2.79238 7.69723C 3.18104 7.93401 3.62736 8.05925 4.08246 8.05925C 4.53756 8.05925 4.98389 7.93401 5.37255 7.69723C 5.69945 7.46926 5.96744 7.1668 6.15441 6.81484C 6.34088 6.46564 6.46915 6.08837 6.53418 5.69788C 6.59675 5.36258 6.63038 5.02252 6.6347 4.68146C 6.63032 4.3404 6.59669 4.00034 6.53418 3.66503C 6.46896 3.27459 6.34069 2.89735 6.15441 2.54807C 5.96709 2.19635 5.69917 1.89398 5.37255 1.66568C 4.98347 1.4301 4.5373 1.30556 4.08246 1.30556C 3.62762 1.30556 3.18146 1.4301 2.79238 1.66568C 2.4666 1.89492 2.19887 2.19707 2.01052 2.54807C 1.8246 2.89751 1.69636 3.27469 1.63075 3.66503C 1.56502 4.0001 1.52766 4.34011 1.51905 4.68146L 1.53023 4.68146Z" transform="translate(254.394 4.62158)" fill="#313847"/>
<path id="Vector_12" d="M 7.13734 9.01425L 5.66295 9.01425L 5.66295 3.61937C 5.7043 3.01866 5.56422 2.41938 5.26086 1.89926C 5.08211 1.6883 4.85393 1.52486 4.59667 1.42352C 4.33941 1.32218 4.06108 1.28608 3.78648 1.31844C 3.54044 1.32161 3.29606 1.3592 3.06046 1.43014C 2.77957 1.51865 2.52327 1.67165 2.31209 1.87692C 2.05464 2.13026 1.853 2.43462 1.72011 2.77048C 1.54253 3.23336 1.45899 3.72699 1.47437 4.22252L 1.47437 9.00308L -3.74954e-06 9.00308L -3.74954e-06 0.246165L 1.38503 0.246165L 1.38503 1.48598C 1.46321 1.37429 1.5749 1.22908 1.72011 1.06154C 1.88106 0.87527 2.06496 0.710136 2.26742 0.570081C 2.50229 0.404002 2.75756 0.268856 3.02695 0.167978C 3.34898 0.0511845 3.68969 -0.00560083 4.0322 0.000435833C 4.38571 0.00131714 4.73797 0.0425384 5.08214 0.1233C 5.44179 0.205033 5.78038 0.361017 6.07623 0.581251C 6.39419 0.825218 6.64735 1.14357 6.81342 1.50832C 7.01806 1.99161 7.11341 2.51413 7.09266 3.03855L 7.13734 9.01425Z" transform="translate(264.961 4.67871)" fill="#313847"/>
<path id="Vector_13" d="M 7.65132 3.83594C 7.636 3.44427 7.52888 3.06167 7.33857 2.71899C 7.16533 2.41826 6.92441 2.16203 6.6349 1.97063C 6.34577 1.77951 6.02394 1.6432 5.68548 1.56853C 5.34813 1.49347 5.0035 1.456 4.65789 1.45683C 4.36962 1.46065 4.08207 1.48679 3.79783 1.53502C 3.48503 1.58415 3.18287 1.68613 2.90426 1.83659C 2.62226 1.98963 2.38099 2.20793 2.20059 2.47326C 1.99347 2.80741 1.89585 3.1979 1.92136 3.59021C 1.91249 3.81269 1.95451 4.03426 2.04422 4.23804C 2.12215 4.40335 2.23226 4.55144 2.36813 4.67366C 2.50369 4.79224 2.65859 4.88669 2.82609 4.9529C 2.99331 5.02046 3.16497 5.07644 3.33988 5.12044L 6.78009 5.91347C 7.16657 5.99379 7.54171 6.12134 7.89705 6.29324C 8.5577 6.61576 9.06944 7.17946 9.32675 7.86814C 9.47419 8.26844 9.54615 8.6926 9.53897 9.11913C 9.56271 9.74164 9.40767 10.3579 9.0922 10.8951C 8.81421 11.3511 8.43125 11.7341 7.97524 12.012C 7.50178 12.291 6.98431 12.4874 6.445 12.5929C 5.44763 12.7937 4.42218 12.8126 3.41807 12.6487C 3.0706 12.5906 2.73 12.4971 2.40164 12.3695C 2.15276 12.2714 1.91651 12.1439 1.69795 11.9897C 1.53103 11.872 1.3707 11.7452 1.21767 11.6099C 0.762864 11.2231 0.419667 10.7218 0.223582 10.1579C 0.0709721 9.63937 -0.00430701 9.10116 0.000186122 8.56065L 1.53042 8.56065C 1.51148 9.03331 1.61538 9.50281 1.832 9.92334C 2.02251 10.2667 2.29016 10.5611 2.61386 10.7834C 2.95236 11.0082 3.33196 11.1638 3.73082 11.2413C 4.09726 11.3259 4.47172 11.3708 4.84777 11.3754C 5.17678 11.3712 5.50515 11.345 5.83069 11.2972C 6.18557 11.2511 6.53178 11.1533 6.85829 11.0068C 7.16982 10.8662 7.44495 10.6561 7.6625 10.3925C 7.89212 10.0923 8.00698 9.71992 7.98641 9.34252C 7.99366 9.07293 7.95203 8.80425 7.86354 8.54949C 7.7787 8.32945 7.6359 8.13647 7.45027 7.99101C 7.21071 7.81018 6.94269 7.67051 6.65723 7.57774C 6.32959 7.45859 5.92005 7.33945 5.42859 7.22031L 2.96011 6.65067C 2.70966 6.59279 2.46337 6.51816 2.22292 6.42727C 1.91961 6.31339 1.63672 6.1512 1.38521 5.94698C 1.10404 5.71788 0.869029 5.43738 0.6927 5.12044C 0.485012 4.7211 0.384921 4.27455 0.40229 3.82477C 0.402352 3.35686 0.481659 2.89234 0.636849 2.45092C 0.793365 2.00726 1.04497 1.60317 1.37404 1.26695C 1.74178 0.899168 2.18341 0.613636 2.66971 0.429232C 3.23049 0.179539 3.83259 0.0356422 4.44567 0.00479032C 5.29541 -0.0285134 6.14301 0.112119 6.93647 0.418063C 7.47527 0.637195 7.95395 0.981842 8.33266 1.42332C 8.65871 1.79386 8.88884 2.23877 9.00284 2.71899C 9.08827 3.08671 9.14798 3.45993 9.18156 3.83594L 7.65132 3.83594Z" transform="translate(280.318 1.33447)" fill="#313847"/>
<path id="Vector_14" d="M 6.06545 3.15193C 6.01169 2.6327 5.78788 2.14579 5.42879 1.76691C 5.03896 1.42295 4.52933 1.24638 4.01026 1.27545C 3.61812 1.26603 3.23119 1.36663 2.8933 1.56586C 2.58488 1.75806 2.328 2.02261 2.14495 2.33655C 1.9455 2.68197 1.80933 3.06022 1.74284 3.45351C 1.66743 3.83986 1.63001 4.23267 1.63114 4.62631C 1.63301 5.00033 1.66288 5.3737 1.7205 5.74326C 1.77197 6.13247 1.88904 6.51014 2.06675 6.86022C 2.23635 7.18572 2.48626 7.46253 2.79278 7.66442C 3.16353 7.88514 3.59026 7.99376 4.02142 7.97717C 4.5175 7.97895 4.99459 7.78651 5.3506 7.44103C 5.76537 7.02401 6.03216 6.48262 6.11014 5.89964L 7.52866 5.89964C 7.48956 6.28115 7.40327 6.65633 7.27176 7.01659C 7.13383 7.42195 6.92591 7.79999 6.65743 8.13354C 6.35052 8.48795 5.96912 8.77019 5.54048 8.96009C 5.03268 9.19108 4.47848 9.30192 3.9209 9.28401C 3.35309 9.29498 2.78949 9.18455 2.26781 8.96009C 1.79519 8.75006 1.37542 8.43715 1.03916 8.04419C 0.693091 7.6339 0.431207 7.15947 0.268457 6.648C 0.0850586 6.07791 -0.00544271 5.48204 0.000398595 4.88321C -0.00646392 4.23824 0.0762365 3.59544 0.24613 2.97322C 0.397429 2.41179 0.65528 1.88469 1.00565 1.42065C 1.35224 0.975186 1.80031 0.619032 2.31248 0.381884C 2.90573 0.116798 3.55054 -0.0129259 4.20014 0.00212062C 4.70265 -0.015763 5.20274 0.0796745 5.66334 0.281359C 6.04417 0.457264 6.38307 0.712396 6.65743 1.02972C 6.91496 1.33196 7.11213 1.6808 7.23825 2.05731C 7.36365 2.41872 7.44613 2.79361 7.48398 3.17427L 6.06545 3.15193Z" transform="translate(291.924 4.72119)" fill="#313847"/>
<path id="Vector_15" d="M 7.13733 12.0296L 5.66296 12.0296L 5.66296 6.29962C 5.66496 6.02586 5.63875 5.75263 5.58477 5.48424C 5.543 5.26184 5.45136 5.05179 5.31671 4.86992C 5.17568 4.69451 4.99068 4.55962 4.78056 4.47898C 4.5062 4.37454 4.21396 4.3252 3.92051 4.33378C 3.62056 4.33523 3.32272 4.38424 3.03811 4.47898C 2.73924 4.57911 2.46775 4.74736 2.24508 4.97044C 1.99455 5.2272 1.80385 5.53614 1.68661 5.87518C 1.53444 6.32065 1.46258 6.7896 1.47438 7.2602L 1.47438 12.0408L -3.40867e-06 12.0408L -3.40867e-06 1.49129e-07L 1.47438 1.49129e-07L 1.47438 4.46781C 1.57119 4.33378 1.69777 4.18113 1.85414 4.00986C 2.01461 3.83379 2.19446 3.67641 2.39028 3.54074C 2.61131 3.38983 2.85178 3.26959 3.10513 3.18332C 3.4074 3.08214 3.72467 3.03304 4.04338 3.03811C 4.39689 3.039 4.74914 3.08022 5.0933 3.16098C 5.45295 3.24271 5.79155 3.3987 6.08739 3.61893C 6.40568 3.86257 6.65891 4.18101 6.82458 4.546C 7.03305 5.02842 7.13224 5.55098 7.115 6.07623L 7.13733 12.0296Z" transform="translate(301.742 1.66357)" fill="#313847"/>
<path id="Vector_16" d="M 0 4.67747C 0.00090117 4.10641 0.083654 3.53844 0.245731 2.99087C 0.399992 2.4532 0.653842 1.94929 0.994088 1.50532C 1.35966 1.03652 1.82734 0.657278 2.36154 0.396429C 2.89575 0.13558 3.48239 3.9186e-07 4.07687 3.9186e-07C 4.67136 3.9186e-07 5.25802 0.13558 5.79222 0.396429C 6.32642 0.657278 6.7941 1.03652 7.15968 1.50532C 7.49992 1.94929 7.75377 2.4532 7.90803 2.99087C 8.22761 4.08496 8.22761 5.24763 7.90803 6.34173C 7.75377 6.87939 7.49992 7.38331 7.15968 7.82728C 6.7941 8.29607 6.32642 8.67531 5.79222 8.93616C 5.25802 9.19701 4.67136 9.33259 4.07687 9.33259C 3.48239 9.33259 2.89575 9.19701 2.36154 8.93616C 1.82734 8.67531 1.35966 8.29607 0.994088 7.82728C 0.653842 7.38331 0.399992 6.87939 0.245731 6.34173C 0.0857521 5.80134 0.00302117 5.24103 0 4.67747ZM 1.53022 4.67747C 1.53455 5.01853 1.5682 5.35859 1.63076 5.69389C 1.69579 6.08438 1.82406 6.46165 2.01052 6.81085C 2.19819 7.16233 2.46605 7.46463 2.79238 7.69324C 3.18104 7.93002 3.62736 8.05526 4.08246 8.05526C 4.53757 8.05526 4.98389 7.93002 5.37254 7.69324C 5.69888 7.46463 5.96674 7.16233 6.15441 6.81085C 6.34105 6.46173 6.46935 6.08443 6.53419 5.69389C 6.59675 5.35859 6.63038 5.01853 6.63471 4.67747C 6.63027 4.33641 6.59664 3.99636 6.53419 3.66104C 6.46915 3.27055 6.34087 2.89328 6.15441 2.54408C 5.96639 2.19284 5.6986 1.89062 5.37254 1.66169C 4.98346 1.42611 4.53731 1.30157 4.08246 1.30157C 3.62762 1.30157 3.18146 1.42611 2.79238 1.66169C 2.46605 1.8903 2.19819 2.1926 2.01052 2.54408C 1.82424 2.89336 1.69598 3.2706 1.63076 3.66104C 1.5645 3.99603 1.52712 4.33608 1.51906 4.67747L 1.53022 4.67747Z" transform="translate(311.292 4.62598)" fill="#313847"/>
<path id="Vector_17" d="M -7.49908e-06 4.67747C 0.000893671 4.10641 0.0836465 3.53844 0.245724 2.99087C 0.399985 2.4532 0.653834 1.94929 0.994081 1.50532C 1.35966 1.03652 1.82734 0.657278 2.36154 0.396429C 2.89574 0.13558 3.4824 3.9186e-07 4.07688 3.9186e-07C 4.67137 3.9186e-07 5.25803 0.13558 5.79223 0.396429C 6.32643 0.657278 6.79409 1.03652 7.15967 1.50532C 7.49992 1.94929 7.75377 2.4532 7.90803 2.99087C 8.2276 4.08496 8.2276 5.24763 7.90803 6.34173C 7.75377 6.87939 7.49992 7.38331 7.15967 7.82728C 6.79409 8.29607 6.32643 8.67531 5.79223 8.93616C 5.25803 9.19701 4.67137 9.33259 4.07688 9.33259C 3.4824 9.33259 2.89574 9.19701 2.36154 8.93616C 1.82734 8.67531 1.35966 8.29607 0.994081 7.82728C 0.653834 7.38331 0.399985 6.87939 0.245724 6.34173C 0.0857446 5.80134 0.00301367 5.24103 -7.49908e-06 4.67747ZM 1.53023 4.67747C 1.5345 5.01853 1.56813 5.3586 1.63075 5.69389C 1.69559 6.08443 1.82387 6.46173 2.01051 6.81085C 2.19818 7.16233 2.46604 7.46463 2.79238 7.69324C 3.18103 7.93002 3.62737 8.05526 4.08247 8.05526C 4.53757 8.05526 4.9839 7.93002 5.37255 7.69324C 5.69889 7.46463 5.96675 7.16233 6.15442 6.81085C 6.34088 6.46165 6.46915 6.08438 6.53418 5.69389C 6.59669 5.35858 6.63032 5.01853 6.6347 4.67747C 6.63021 4.33641 6.59658 3.99636 6.53418 3.66104C 6.46915 3.27055 6.34088 2.89328 6.15442 2.54408C 5.9664 2.19284 5.69861 1.89062 5.37255 1.66169C 4.98347 1.42611 4.53732 1.30157 4.08247 1.30157C 3.62763 1.30157 3.18146 1.42611 2.79238 1.66169C 2.46604 1.8903 2.19818 2.1926 2.01051 2.54408C 1.82405 2.89328 1.69578 3.27055 1.63075 3.66104C 1.56824 3.99635 1.53461 4.33641 1.53023 4.67747Z" transform="translate(321.39 4.62598)" fill="#313847"/>
<path id="Vector_18" d="M 1.47437 12.0296L 3.40867e-06 12.0296L 3.40867e-06 1.49129e-07L 1.47437 1.49129e-07L 1.47437 12.0296Z" transform="translate(332.011 1.66357)" fill="#313847"/>
</g>
<g id="Group_2">
<path id="Vector_19" fill-rule="evenodd" clip-rule="evenodd" d="M 3.60961 4.85875C 3.74365 4.24442 6.37966 4.21092 6.21212 4.98161C 5.57139 7.4137 4.69606 9.77784 3.59845 12.0408C 2.70488 14.1183 2.48149 15.8719 2.96178 16.8995C 3.21572 17.5507 3.64008 18.1217 4.19043 18.5526C 5.27739 19.2435 6.5585 19.5648 7.84287 19.4685C 8.91343 19.5223 9.98361 19.3554 10.9869 18.9781C 11.9903 18.6008 12.9053 18.0213 13.6752 17.2755C 14.4451 16.5297 15.0534 15.6335 15.4624 14.6427C 15.8713 13.6519 16.0722 12.5875 16.0525 11.5158C 16.0525 5.24968 11.8081 3.38437 9.83105 2.23391C 9.23906 1.58607 10.0433 -8.52168e-08 10.6017 -8.52168e-08C 12.0203 -8.52168e-08 18.6885 3.35086 18.6885 11.6722C 18.6126 14.4764 17.4663 17.1452 15.4848 19.1309C 13.5032 21.1166 10.8368 22.2685 8.03275 22.3502C 3.27453 22.3502 0.951265 19.9935 0.214076 17.5027C -0.411418 15.481 0.426297 12.7556 1.53208 10.3653C 2.09056 9.17019 2.19108 8.85744 2.57085 7.97505C 3.01127 6.96579 3.38441 5.92847 3.6878 4.86992" transform="translate(153.408 1.63037)" fill="#313847"/>
<path id="Vector_20" fill-rule="evenodd" clip-rule="evenodd" d="M 5.2692 3.74107C 4.59903 4.16551 1.33753 4.0985 0.399284 3.79692C -0.293227 3.5847 0.03069 0.881671 0.49981 0.446059C 1.0918 -0.168266 5.05698 -0.190605 5.60429 0.647111C 5.91704 1.13857 5.87236 3.31663 5.28037 3.69639" transform="translate(156.015 0)" fill="#313847"/>
<path id="Vector_21" fill-rule="evenodd" clip-rule="evenodd" d="M 2.43498 14.1604C 2.52434 28.5467 21.8141 29.619 26.55 21.6886C 26.8404 21.0631 29.2865 20.9403 29.5323 21.6886C 21.0881 35.3266 2.26215e-05 29.5073 2.26215e-05 14.138C -0.0111469 7.02304 4.09924 1.37125 10.5664 0.00856627C 11.2366 -0.147807 11.7504 1.88505 11.1584 2.16429C 6.18795 3.34826 2.40147 8.86601 2.43498 14.1604Z" transform="translate(143 1.56592)" fill="#313847"/>
</g>
<path id="Vector_22" d="M -1.70434e-07 -4.57764e-07L 149.929 -4.57764e-07" transform="translate(183.937 18.1606)" stroke="#313847" stroke-width="0.5"/>
<path id="Vector_23" d="M -7.62939e-08 -3.19563e-08L -7.62939e-08 31.096" transform="translate(178.542 0.904297)" stroke="#313847" stroke-width="0.5"/>
<g id="Group_3">
<path id="Vector_24" d="M 127.958 3.42905L 128.584 4.05454L 128.584 6.47833C 128.444 6.6026 128.282 6.69814 128.106 6.75948C 127.929 6.82081 127.743 6.84674 127.556 6.83576C 126.16 6.83576 125.322 5.19383 125.322 3.68595C 125.322 2.17806 126.149 0.536138 127.556 0.536138C 127.711 0.5285 127.866 0.555633 128.009 0.61555C 128.152 0.675466 128.279 0.766644 128.383 0.882393L 129.388 1.87648L 129.388 0.402103C 128.891 0.151576 128.344 0.0155336 127.787 0.00395491C 127.23 -0.00762378 126.678 0.105554 126.171 0.335188C 125.664 0.564822 125.214 0.905089 124.856 1.33103C 124.497 1.75697 124.238 2.25778 124.098 2.79674C 123.958 3.33569 123.941 3.89911 124.047 4.44568C 124.154 4.99225 124.381 5.50811 124.712 5.95542C 125.044 6.40272 125.471 6.77013 125.964 7.0307C 126.456 7.29126 127 7.43838 127.556 7.46125C 128.308 7.53782 129.063 7.34809 129.689 6.92511L 129.689 4.06571L 130.315 3.44022L 127.958 3.42905ZM 112.086 0.0781873L 112.701 0.703681L 112.701 6.72406L 112.086 7.34956L 114.443 7.34956L 113.818 6.72406L 113.818 0.714851L 114.443 0.0893571L 112.086 0.0781873ZM 105.843 3.75296L 108.59 3.75296L 108.59 6.72406L 107.965 7.34956L 110.322 7.34956L 109.707 6.72406L 109.707 0.714851L 110.322 0.0893571L 107.965 0.0893571L 108.59 0.714851L 108.59 3.12747L 105.843 3.12747L 105.843 0.670171L 106.468 0.0446779L 104.1 0.0446779L 104.726 0.670171L 104.726 6.69055L 104.1 7.31605L 106.468 7.31605L 105.843 6.69055L 105.843 3.75296ZM 102.492 5.14916C 102.508 4.87967 102.452 4.61073 102.328 4.37084C 102.204 4.13094 102.017 3.92902 101.788 3.78647L 100.034 2.66952C 99.8244 2.56306 99.6453 2.40443 99.5142 2.20884C 99.3832 2.01325 99.3046 1.78726 99.286 1.55257C 99.3112 1.27408 99.4399 1.01517 99.6467 0.826977C 99.8535 0.638784 100.123 0.535004 100.403 0.536138C 100.571 0.521386 100.739 0.56051 100.883 0.647834L 101.62 1.56374L 102.346 0.323916L 100.906 0.0558477C 100.716 0.0328154 100.525 0.0328154 100.336 0.0558477C 100.071 0.0438033 99.807 0.0853712 99.5588 0.178055C 99.3106 0.270739 99.0837 0.412627 98.8918 0.595196C 98.6998 0.777764 98.5468 0.997246 98.4418 1.24046C 98.3368 1.48368 98.282 1.74561 98.2808 2.01052C 98.2883 2.34756 98.3815 2.67713 98.5515 2.96826C 98.7215 3.25939 98.9627 3.50251 99.2525 3.67478L 101.006 4.79173C 101.163 4.89498 101.291 5.0361 101.379 5.20204C 101.467 5.36799 101.512 5.5534 101.509 5.74114C 101.515 5.90958 101.487 6.07748 101.426 6.23461C 101.365 6.39174 101.272 6.53478 101.154 6.655C 101.036 6.77522 100.895 6.87009 100.739 6.93382C 100.582 6.99754 100.415 7.02879 100.247 7.02564C 100.04 7.03306 99.8347 6.98278 99.6546 6.88044L 98.8504 5.86401L 98.1467 7.1485L 99.6546 7.41657C 99.8365 7.43753 100.02 7.43753 100.202 7.41657C 100.511 7.43226 100.82 7.38346 101.11 7.27327C 101.399 7.16307 101.663 6.99389 101.883 6.77647C 102.104 6.55904 102.277 6.29813 102.391 6.0103C 102.506 5.72246 102.559 5.41399 102.548 5.10448L 102.492 5.14916ZM 93.6119 1.75362L 94.5836 4.66887L 92.562 4.66887L 93.6119 1.75362ZM 91.9253 6.70172L 92.4056 5.26085L 94.7959 5.26085L 95.2762 6.70172L 94.6618 7.31605L 97.1303 7.31605L 96.4825 6.67938L 94.2486 0.0335081L 93.5672 0.0335081L 91.2439 6.67938L 90.6073 7.31605L 92.562 7.31605L 91.9253 6.70172ZM 84.1066 7.31605L 85.6145 2.59133L 87.0777 7.31605L 87.7591 7.31605L 89.8701 0.670171L 90.4956 0.0223383L 88.5409 0.0223383L 89.1552 0.636664L 87.6585 5.47307L 86.2288 0.636664L 86.8431 0.0223383L 84.3747 0.0223383L 85.0002 0.670171L 85.2459 1.47438L 83.9949 5.48424L 82.5094 0.703681L 83.1237 0.0893571L 80.6552 0.0893571L 81.2807 0.73719L 83.3471 7.38306L 84.1066 7.31605ZM 73.7301 2.94876C 74.0429 0.982919 74.2663 0.547308 74.5567 0.547308C 74.8444 0.568913 75.1125 0.700999 75.305 0.915903C 75.3548 0.963036 75.4208 0.989304 75.4893 0.989304C 75.5579 0.989304 75.6238 0.963036 75.6736 0.915903C 75.7459 0.85908 75.8059 0.788224 75.85 0.707603C 75.8942 0.626982 75.9216 0.538262 75.9305 0.446782C 75.9305 0.201052 75.6513 8.52168e-07 75.2603 8.52168e-07C 74.9297 0.0217427 74.6069 0.110132 74.3113 0.259852C 74.0157 0.409573 73.7534 0.617532 73.5402 0.871223C 73.0736 1.47362 72.7801 2.19192 72.6914 2.94876L 72.0659 2.94876L 71.7643 3.26151L 71.7643 3.36203L 72.5685 3.36203C 72.4344 4.25559 72.3228 5.04863 72.144 6.32196C 72.1037 7.22983 71.8994 8.12291 71.5409 8.95797C 71.5088 8.99496 71.4694 9.02495 71.4252 9.04609C 71.381 9.06722 71.3329 9.07905 71.284 9.08084C 71.1157 9.04625 70.9537 8.98597 70.8037 8.90212C 70.751 8.87991 70.6927 8.87443 70.6368 8.88642C 70.5808 8.8984 70.5299 8.92728 70.4909 8.96914C 70.3758 9.09027 70.3084 9.24896 70.3011 9.41592C 70.3011 9.65048 70.558 9.73983 70.7367 9.73983C 71.2009 9.67137 71.623 9.43245 71.9206 9.06966C 72.6553 8.05482 73.1098 6.86448 73.2387 5.61828C 73.3839 4.89226 73.4844 4.25559 73.6296 3.38437L 74.6684 3.28384L 74.9029 2.9711L 73.7301 2.94876ZM 68.2682 3.13864C 68.6815 3.13864 68.9496 3.50723 68.9496 4.25559C 68.9978 4.74253 68.9344 5.23407 68.7641 5.6928C 68.5938 6.15153 68.321 6.56535 67.9666 6.90277C 67.8852 6.91469 67.8024 6.91469 67.7209 6.90277C 67.2518 6.90277 66.9837 6.40014 66.9837 5.60711C 66.9837 4.05454 67.6539 3.28384 67.9666 3.14981C 68.0657 3.10903 68.1723 3.08998 68.2794 3.09396L 68.2682 3.13864ZM 68.6256 2.64718C 68.1722 2.66303 67.7303 2.7937 67.3411 3.02694C 66.8812 3.31192 66.5041 3.71252 66.2473 4.18878C 65.9906 4.66503 65.8632 5.20029 65.8779 5.74114C 65.8521 5.94376 65.8704 6.14955 65.9315 6.34445C 65.9926 6.53935 66.095 6.71876 66.2318 6.87042C 66.3686 7.02208 66.5366 7.14241 66.7242 7.22317C 66.9118 7.30394 67.1146 7.34324 67.3188 7.33839C 67.9314 7.29712 68.5128 7.05352 68.9719 6.64587C 69.3202 6.32336 69.5989 5.9331 69.791 5.49902C 69.983 5.06495 70.0844 4.59621 70.0888 4.12156C 70.1052 3.92667 70.0795 3.73054 70.0133 3.54649C 69.9472 3.36244 69.8422 3.19478 69.7055 3.05491C 69.5688 2.91504 69.4036 2.80623 69.2212 2.73587C 69.0387 2.66552 68.8432 2.63527 68.648 2.64718L 68.6256 2.64718ZM 56.1381 0.614325L 57.9364 3.98753L 57.9364 6.73523L 57.3109 7.36073L 59.6677 7.36073L 59.0533 6.73523L 59.0533 3.99869L 60.8405 0.714851L 61.466 0.0893571L 59.5001 0.0893571L 60.1144 0.703681L 58.7183 3.30618L 57.2886 0.703681L 57.9029 0.0893571L 55.4344 0.0893571L 56.1381 0.614325ZM 52.3516 6.73523L 52.3516 0.681341L 53.5691 0.681341L 54.3956 1.51906L 54.3956 0.0893571L 49.1348 0.0893571L 49.1348 1.51906L 49.9613 0.681341L 51.2347 0.681341L 51.2347 6.7464L 50.6092 7.37189L 52.9659 7.37189L 52.3516 6.73523ZM 45.1696 0.0335081L 45.7839 0.659004L 45.7839 6.67938L 45.1696 7.30488L 47.5264 7.30488L 46.9009 6.67938L 46.9009 0.714851L 47.5264 0.0893571L 45.1696 0.0335081ZM 43.416 5.16033C 43.4337 4.89067 43.3776 4.62127 43.2536 4.38116C 43.1296 4.14104 42.9425 3.93929 42.7123 3.79764L 40.9587 2.68069C 40.7487 2.57423 40.5696 2.4156 40.4385 2.22001C 40.3075 2.02442 40.2289 1.79843 40.2103 1.56374C 40.2355 1.28525 40.3642 1.02634 40.571 0.838147C 40.7778 0.649954 41.0477 0.546173 41.3273 0.547308C 41.4952 0.532555 41.6634 0.57168 41.8076 0.659004L 42.5448 1.57491L 43.2708 0.335086L 41.8299 0.0670175C 41.6407 0.0437632 41.4494 0.0437632 41.2603 0.0670175C 40.9956 0.0534546 40.731 0.0935262 40.4823 0.184825C 40.2335 0.276125 40.0058 0.416768 39.8128 0.598302C 39.6198 0.779836 39.4655 0.998514 39.3591 1.2412C 39.2528 1.48388 39.1966 1.74556 39.1939 2.01052C 39.2015 2.34756 39.2947 2.67713 39.4646 2.96826C 39.6346 3.25939 39.8759 3.50251 40.1656 3.67478L 41.9193 4.79173C 42.0761 4.89498 42.2044 5.0361 42.2922 5.20204C 42.3801 5.36799 42.4247 5.5534 42.4219 5.74114C 42.419 6.06802 42.287 6.38051 42.0548 6.61061C 41.8226 6.84071 41.509 6.96981 41.1821 6.96979C 40.9751 6.97721 40.7701 6.92694 40.5901 6.82459L 39.7859 5.80816L 39.0599 7.13733L 40.5678 7.4054C 40.7496 7.42646 40.9332 7.42646 41.1151 7.4054C 41.415 7.41441 41.7136 7.36291 41.9931 7.25398C 42.2727 7.14506 42.5275 6.98093 42.7422 6.7714C 42.9569 6.56187 43.1273 6.31123 43.243 6.03443C 43.3588 5.75763 43.4176 5.46035 43.416 5.16033ZM 33.9107 0.692511L 34.6367 0.692511C 34.8114 0.702481 34.9824 0.74683 35.1398 0.823014C 35.2973 0.899198 35.4382 1.00572 35.5544 1.13647C 35.6706 1.26722 35.7599 1.41962 35.8171 1.58495C 35.8743 1.75027 35.8983 1.92526 35.8877 2.09987C 35.894 2.44196 35.7669 2.77308 35.5335 3.02321C 35.3 3.27333 34.9784 3.42288 34.6367 3.44022L 33.9107 3.44022L 33.9107 0.692511ZM 37.4068 6.75757L 35.8207 3.80881C 36.1997 3.69777 36.5346 3.47133 36.7788 3.16102C 37.0231 2.85071 37.1645 2.47198 37.1834 2.07753C 37.1105 1.48122 36.8062 0.937431 36.3361 0.56342C 35.866 0.18941 35.2677 0.0151409 34.6702 0.0781873L 32.2465 0.0781873L 32.8719 0.703681L 32.8719 6.72406L 32.2465 7.37189L 34.6144 7.37189L 33.9889 6.7464L 33.9889 4.02103L 34.8043 4.02103L 36.5467 7.37189L 38.1105 7.37189L 37.4068 6.75757ZM 30.5263 7.38306L 30.5263 5.94219L 29.6998 6.77991L 27.7786 6.77991L 27.7786 3.76413L 29.2083 3.76413L 29.8338 4.38963L 29.8338 2.54665L 29.2083 3.17215L 27.7786 3.17215L 27.7786 0.681341L 29.778 0.681341L 30.6045 1.51906L 30.6045 0.0893571L 25.9915 0.0893571L 26.617 0.714851L 26.617 6.73523L 25.9915 7.36073L 30.5263 7.38306ZM 21.2333 0.100527L 18.843 0.100527L 19.4685 0.74836L 21.5349 7.39423L 22.1939 7.39423L 24.3049 0.74836L 24.9527 0.100527L 22.9534 0.100527L 23.5677 0.714851L 22.071 5.55126L 20.6413 0.714851L 21.2333 0.100527ZM 15.1124 0.100527L 15.7267 0.72602L 15.7267 6.7464L 15.1124 7.37189L 17.4692 7.37189L 16.8437 6.7464L 16.8437 0.714851L 17.4692 0.0893571L 15.1124 0.100527ZM 8.56703 6.80225L 8.56703 1.5414L 12.2977 7.37189L 12.778 7.37189L 12.778 0.670171L 13.4034 0.0446779L 11.4823 0.0446779L 12.1078 0.670171L 12.1078 4.82524L 9.08083 0.0335081L 7.2602 0.0335081L 7.88569 0.659004L 7.88569 6.67938L 7.2602 7.30488L 9.22604 7.30488L 8.56703 6.80225ZM 0.603153 5.48424C 0.672823 6.0737 0.956375 6.61711 1.40004 7.01142C 1.8437 7.40573 2.41663 7.62354 3.01019 7.62354C 3.60375 7.62354 4.17668 7.40573 4.62035 7.01142C 5.06401 6.61711 5.34755 6.0737 5.41722 5.48424L 5.41722 0.714851L 6.04272 0.0893571L 4.11039 0.0893571L 4.73588 0.714851L 4.73588 5.41722C 4.73588 5.81418 4.5782 6.19488 4.29751 6.47556C 4.01682 6.75625 3.63612 6.91394 3.23916 6.91394C 2.84221 6.91394 2.46152 6.75625 2.18083 6.47556C 1.90014 6.19488 1.74245 5.81418 1.74245 5.41722L 1.74245 0.714851L 2.36794 0.0893571L 1.19304e-06 0.0893571L 0.625493 0.714851L 0.603153 5.48424Z" transform="translate(183.267 22.1484)" fill="#313847"/>
<path id="Vector_25" d="M 1.32918 6.65704L 1.32918 1.46321L 5.0598 7.29371L 5.54008 7.29371L 5.54008 0.636664L 6.16559 9.37385e-07L 4.22209 9.37385e-07L 4.84758 0.636664L 4.84758 4.79173L 1.82064 9.37385e-07L 2.0452e-06 9.37385e-07L 0.625493 0.636664L 0.625493 6.65704L 2.0452e-06 7.28254L 1.95467 7.28254L 1.32918 6.65704Z" transform="translate(299.73 22.2266)" fill="#313847"/>
<path id="Vector_26" d="M 1.32917 6.65704L 1.32917 1.46321L 5.05979 7.29371L 5.54009 7.29371L 5.54009 0.636664L 6.16558 9.37385e-07L 4.22208 9.37385e-07L 4.84759 0.636664L 4.84759 4.79173L 1.82063 9.37385e-07L -5.45388e-06 9.37385e-07L 0.625486 0.636664L 0.625486 6.65704L -5.45388e-06 7.28254L 1.96584 7.28254L 1.32917 6.65704Z" transform="translate(328.258 22.2266)" fill="#313847"/>
<path id="Vector_27" d="M 3.18331 6.65704L 3.18331 0.591985L 4.4008 0.591985L 5.22734 1.4297L 5.22734 9.37385e-07L 4.77214e-06 9.37385e-07L 4.77214e-06 1.4297L 0.82654 0.591985L 2.06636 0.591985L 2.06636 6.65704L 1.44087 7.28254L 3.79764 7.28254L 3.18331 6.65704Z" transform="translate(314.464 22.2266)" fill="#313847"/>
<path id="Vector_28" d="M 1.37384 3.79764C 1.37384 2.35677 1.74244 0.603155 3.13863 0.603155C 4.53483 0.603155 4.89226 2.35677 4.89226 3.79764C 4.89226 5.23851 4.52366 6.99213 3.13863 6.99213C 1.75361 6.99213 1.37384 5.23851 1.37384 3.79764ZM -3.40867e-06 3.79764C -3.40867e-06 5.69646 1.2063 7.59529 3.13863 7.59529C 5.07096 7.59529 6.26611 5.69646 6.26611 3.79764C 6.26611 1.89882 5.05979 -6.81734e-07 3.13863 -6.81734e-07C 1.21747 -6.81734e-07 -3.40867e-06 1.89882 -3.40867e-06 3.79764Z" transform="translate(320.73 22.0815)" fill="#313847"/>
</g>
</g>
</g>
</g>
</g>
</svg>
