<svg width="221" height="66" viewBox="0 0 221 66" fill="none" xmlns="http://www.w3.org/2000/svg">
<path d="M17.266 22.7926H5.45432V16.2185H16.5978V12.0284H5.45432V5.74329H17.266V1.24619H0V27.3077H17.266V22.7926Z" transform="translate(97.8394 10.2584)" fill="#141414"/>
<path d="M21.0387 27.3077H26.3124V0H21.0387V27.3077Z" transform="translate(97.8394 10.2584)" fill="#141414"/>
<path d="M38.971 11.017C41.4092 11.017 43.1069 12.7147 43.1972 15.3154H34.6184C34.799 12.7689 36.5689 11.017 38.971 11.017ZM43.2694 21.2393C42.7637 22.7745 41.1925 23.7137 39.2058 23.7137C36.4244 23.7137 34.5642 21.7812 34.5642 18.9095V18.5844H48.2903V16.959C48.2903 10.9086 44.642 7.07978 38.9168 7.07978C33.0832 7.07978 29.3627 11.1254 29.3627 17.4466C29.3627 23.7678 33.0652 27.6509 39.1155 27.6509C43.9557 27.6509 47.5498 25.0863 48.1278 21.2393H43.2694Z" transform="translate(97.8394 10.2584)" fill="#141414"/>
<path d="M68.9497 7.42293H63.4412L59.2331 22.5939H59.1247L54.8985 7.42293H49.2636L56.1628 27.3077H62.0867L68.9497 7.42293Z" transform="translate(97.8394 10.2584)" fill="#141414"/>
<path d="M78.0865 23.6956C76.172 23.6956 74.9259 22.7745 74.9259 21.3116C74.9259 19.8487 76.0998 18.9818 78.3032 18.8373L82.4752 18.5483V20.0112C82.4752 22.1785 80.5247 23.6956 78.0865 23.6956ZM76.3707 27.5425C78.9173 27.5425 81.3735 26.3144 82.4572 24.2374H82.5655V27.3077H87.6586V13.6719C87.6586 9.69858 84.3174 7.07978 79.2062 7.07978C74.2395 7.07978 70.808 9.69858 70.6635 13.4913H75.4857C75.7386 12.0465 77.0751 11.0351 78.9895 11.0351C81.1568 11.0351 82.4752 12.0826 82.4752 13.997V15.3154L77.5085 15.6225C72.4335 15.9295 69.6702 17.9704 69.6702 21.5825C69.6702 25.1404 72.5418 27.5425 76.3707 27.5425Z" transform="translate(97.8394 10.2584)" fill="#141414"/>
<path d="M92.6956 2.99807V7.42293H90.0045V11.4143H92.6956V21.9437C92.6956 25.8268 94.5017 27.38 99.1071 27.38C100.173 27.38 101.112 27.2716 101.654 27.1632V23.2621C101.329 23.3163 100.805 23.3524 100.335 23.3524C98.7278 23.3524 97.9693 22.612 97.9693 21.0768V11.4143H101.654V7.42293H97.9693V2.99807H92.6956Z" transform="translate(97.8394 10.2584)" fill="#141414"/>
<path d="M113.337 11.017C115.775 11.017 117.473 12.7147 117.563 15.3154H108.984C109.165 12.7689 110.935 11.017 113.337 11.017ZM117.635 21.2393C117.13 22.7745 115.558 23.7137 113.572 23.7137C110.79 23.7137 108.93 21.7812 108.93 18.9095V18.5844H122.656V16.959C122.656 10.9086 119.008 7.07978 113.283 7.07978C107.449 7.07978 103.729 11.1254 103.729 17.4466C103.729 23.7678 107.431 27.6509 113.481 27.6509C118.322 27.6509 121.916 25.0863 122.494 21.2393H117.635Z" transform="translate(97.8394 10.2584)" fill="#141414"/>
<g filter="url(#filter0_f)">
<path fill-rule="evenodd" clip-rule="evenodd" d="M1.16378 2.30094e-07H14.4001L13.2368 12.8062H2.96087e-06L1.16378 2.30094e-07Z" transform="translate(26.1409 56.4102) scale(1.22477 0.707061) rotate(-45)" fill="#EBEBEB"/>
</g>
<g filter="url(#filter1_f)">
<path fill-rule="evenodd" clip-rule="evenodd" d="M1.16331 7.19045e-09H14.3996L13.2368 12.8062H8.3601e-06L1.16331 7.19045e-09Z" transform="translate(29.4675 21.999) scale(1.22477 0.707061) rotate(-45)" fill="#EBEBEB"/>
</g>
<g filter="url(#filter2_f)">
<path fill-rule="evenodd" clip-rule="evenodd" d="M1.16283 -1.38057e-06H14.3997L13.2368 12.8058H-6.73452e-06L1.16283 -1.38057e-06Z" transform="translate(54.0825 40.238) scale(1.22477 0.707061) rotate(-45)" fill="#EBEBEB"/>
</g>
<g filter="url(#filter3_f)">
<path fill-rule="evenodd" clip-rule="evenodd" d="M1.16284 7.19045e-09H14.3996L13.2363 12.8062H3.48337e-07L1.16284 7.19045e-09Z" transform="translate(1.55756 38.1114) scale(1.22477 0.707061) rotate(-45)" fill="#EBEBEB"/>
</g>
<mask id="mask0" mask-type="alpha" maskUnits="userSpaceOnUse" x="2" y="0" width="75" height="49">
<path fill-rule="evenodd" clip-rule="evenodd" d="M50.734 0L37.4977 2.99813e-05L36.3344 12.8062L49.5712 12.8063L50.734 0ZM14.4001 32.4936L1.16378 32.4936L0 45.2999L13.2368 45.2999L14.4001 32.4936ZM33.468 32.4513L46.7049 32.4513L45.542 45.2571L32.3052 45.2571L33.468 32.4513ZM18.5068 0.000370907L5.27005 0.000394565L4.1072 12.8066L17.3435 12.8066L18.5068 0.000370907Z" transform="translate(-1.99963 25.943) scale(1.22477 0.707061) rotate(-45)" fill="black"/>
</mask>
<g mask="url(#mask0)">
<rect width="51.4346" height="45.3002" transform="translate(-2.40784 26.1789) scale(1.22477 0.707061) rotate(-45)" fill="url(#paint0_radial)"/>
</g>
<defs>
<filter id="filter0_f" x="24.837" y="46.8989" width="26.1701" height="18.2258" filterUnits="userSpaceOnUse" color-interpolation-filters="sRGB">
<feFlood flood-opacity="0" result="BackgroundImageFix"/>
<feBlend mode="normal" in="SourceGraphic" in2="BackgroundImageFix" result="shape"/>
<feGaussianBlur stdDeviation="1.15588" result="effect1_foregroundBlur"/>
</filter>
<filter id="filter1_f" x="28.1632" y="12.4879" width="26.1705" height="18.2256" filterUnits="userSpaceOnUse" color-interpolation-filters="sRGB">
<feFlood flood-opacity="0" result="BackgroundImageFix"/>
<feBlend mode="normal" in="SourceGraphic" in2="BackgroundImageFix" result="shape"/>
<feGaussianBlur stdDeviation="1.15588" result="effect1_foregroundBlur"/>
</filter>
<filter id="filter2_f" x="52.7778" y="30.7269" width="26.1705" height="18.2254" filterUnits="userSpaceOnUse" color-interpolation-filters="sRGB">
<feFlood flood-opacity="0" result="BackgroundImageFix"/>
<feBlend mode="normal" in="SourceGraphic" in2="BackgroundImageFix" result="shape"/>
<feGaussianBlur stdDeviation="1.15588" result="effect1_foregroundBlur"/>
</filter>
<filter id="filter3_f" x="0.252871" y="28.6003" width="26.1705" height="18.2256" filterUnits="userSpaceOnUse" color-interpolation-filters="sRGB">
<feFlood flood-opacity="0" result="BackgroundImageFix"/>
<feBlend mode="normal" in="SourceGraphic" in2="BackgroundImageFix" result="shape"/>
<feGaussianBlur stdDeviation="1.15588" result="effect1_foregroundBlur"/>
</filter>
<radialGradient id="paint0_radial" cx="0.5" cy="0.5" r="0.5" gradientUnits="userSpaceOnUse" gradientTransform="matrix(0.1385 -193.979 229.38 -236.635 -88.4126 286.351)">
<stop stop-color="#E4002B"/>
<stop offset="1" stop-color="#ED002B"/>
</radialGradient>
</defs>
</svg>
