<svg width="75" height="49" viewBox="0 0 75 49" fill="none" xmlns="http://www.w3.org/2000/svg">
<mask id="mask0" mask-type="alpha" maskUnits="userSpaceOnUse" x="0" y="0" width="75" height="49">
<path fill-rule="evenodd" clip-rule="evenodd" d="M50.7339 5.25657e-06L37.4976 0L36.3343 12.8063L49.5711 12.8063L50.7339 5.25657e-06ZM14.4001 32.4937L1.16378 32.4937L0 45.3L13.2368 45.2999L14.4001 32.4937ZM33.468 32.4514L46.7048 32.4514L45.542 45.2572L32.3051 45.2571L33.468 32.4514ZM18.5068 0.000411402L5.26998 0.000435059L4.10716 12.8067L17.3435 12.8067L18.5068 0.000411402Z" transform="translate(-4 26) scale(1.22477 0.707061) rotate(-45)" fill="black"/>
</mask>
<g mask="url(#mask0)">
<rect width="51.4346" height="45.3002" transform="translate(-4.4082 26.236) scale(1.22477 0.707061) rotate(-45)" fill="url(#paint0_radial)"/>
</g>
<defs>
<radialGradient id="paint0_radial" cx="0.5" cy="0.5" r="0.5" gradientUnits="userSpaceOnUse" gradientTransform="matrix(0.1385 -193.979 229.38 -236.635 -88.4126 286.351)">
<stop stop-color="#E4002B"/>
<stop offset="1" stop-color="#ED002B"/>
</radialGradient>
</defs>
</svg>
