<svg width="42" height="34" viewBox="0 0 42 34" version="1.1" xmlns="http://www.w3.org/2000/svg" xmlns:xlink="http://www.w3.org/1999/xlink">
<g id="Canvas" fill="none">
<g id="Group 61">
<g id="Group 12">
<g id="Group 2">
<g id="Group 2_2">
<g id="Group">
<g id="Fill 5" filter="url(#filter0_f)">
<path fill-rule="evenodd" clip-rule="evenodd" d="M 0.591169 1.16882e-07L 7.31486 1.16882e-07L 6.72393 6.50521L 1.50404e-06 6.50521L 0.591169 1.16882e-07Z" transform="matrix(0.866044 -0.499967 0.866044 0.499967 14.2939 28.3618)" fill="black" fill-opacity="0.08"/>
</g>
<g id="Fill 18" filter="url(#filter1_f)">
<path fill-rule="evenodd" clip-rule="evenodd" d="M 0.590929 3.65255e-09L 7.31461 3.65255e-09L 6.72392 6.50521L 4.24669e-06 6.50521L 0.590929 3.65255e-09Z" transform="matrix(0.866044 -0.499967 0.866044 0.499967 15.9844 10.8823)" fill="black" fill-opacity="0.08"/>
</g>
<g id="Fill 19" filter="url(#filter2_f)">
<path fill-rule="evenodd" clip-rule="evenodd" d="M 0.590685 -7.01289e-07L 7.31462 -7.01289e-07L 6.72393 6.50497L -3.42095e-06 6.50497L 0.590685 -7.01289e-07Z" transform="matrix(0.866044 -0.499967 0.866044 0.499967 28.4883 20.147)" fill="black" fill-opacity="0.08"/>
</g>
<g id="Fill 20" filter="url(#filter3_f)">
<path fill-rule="evenodd" clip-rule="evenodd" d="M 0.590689 3.65255e-09L 7.31462 3.65255e-09L 6.72368 6.50521L 1.76946e-07 6.50521L 0.590689 3.65255e-09Z" transform="matrix(0.866044 -0.499967 0.866044 0.499967 1.80664 19.0669)" fill="black" fill-opacity="0.08"/>
</g>
</g>
</g>
</g>
<g id="Group 11">
<g id="Group 10.2">
<g id="Mask Group">
<mask id="mask0" mask-type="alpha" maskUnits="userSpaceOnUse" x="2" y="0" width="38" height="25">
<g id="Group 3.2">
<g id="Group 2_3">
<path id="Union" fill-rule="evenodd" clip-rule="evenodd" d="M 25.7719 0L 19.0479 5.88827e-05L 18.457 6.50531L 25.181 6.50525L 25.7719 0ZM 7.31493 16.5062L 0.591201 16.5066L 0 23.0115L 6.72401 23.0115L 7.31493 16.5062ZM 17.0011 16.4848L 23.7252 16.4847L 23.1342 22.99L 16.4102 22.99L 17.0011 16.4848ZM 9.40156 0.000816818L 2.67755 0.000875701L 2.08663 6.50612L 8.81064 6.50606L 9.40156 0.000816818Z" transform="matrix(0.866044 -0.499967 0.866044 0.499967 0 12.8853)" fill="black"/>
</g>
</g>
</mask>
<g mask="url(#mask0)">
<rect id="Rectangle 2" width="26.1273" height="23.0112" transform="matrix(0.866044 -0.499967 0.866044 0.499967 -0.207031 13.0054)" fill="url(#paint0_radial)"/>
</g>
</g>
</g>
</g>
</g>
</g>
</g>
<defs>
<filter id="filter0_f" x="13.043" y="22.9419" width="14.4704" height="10.4349" filterUnits="userSpaceOnUse" color-interpolation-filters="sRGB">
<feFlood flood-opacity="0" result="BackgroundImageFix"/>
<feBlend mode="normal" in="SourceGraphic" in2="BackgroundImageFix" result="shape"/>
<feGaussianBlur stdDeviation="0.881331" result="effect1_foregroundBlur"/>
</filter>
<filter id="filter1_f" x="14.7334" y="5.46244" width="14.4706" height="10.4348" filterUnits="userSpaceOnUse" color-interpolation-filters="sRGB">
<feFlood flood-opacity="0" result="BackgroundImageFix"/>
<feBlend mode="normal" in="SourceGraphic" in2="BackgroundImageFix" result="shape"/>
<feGaussianBlur stdDeviation="0.881331" result="effect1_foregroundBlur"/>
</filter>
<filter id="filter2_f" x="27.2373" y="14.7271" width="14.4706" height="10.4347" filterUnits="userSpaceOnUse" color-interpolation-filters="sRGB">
<feFlood flood-opacity="0" result="BackgroundImageFix"/>
<feBlend mode="normal" in="SourceGraphic" in2="BackgroundImageFix" result="shape"/>
<feGaussianBlur stdDeviation="0.881331" result="effect1_foregroundBlur"/>
</filter>
<filter id="filter3_f" x="0.555698" y="13.647" width="14.4706" height="10.4348" filterUnits="userSpaceOnUse" color-interpolation-filters="sRGB">
<feFlood flood-opacity="0" result="BackgroundImageFix"/>
<feBlend mode="normal" in="SourceGraphic" in2="BackgroundImageFix" result="shape"/>
<feGaussianBlur stdDeviation="0.881331" result="effect1_foregroundBlur"/>
</filter>
<radialGradient id="paint0_radial" cx="0.5" cy="0.5" r="0.5" gradientUnits="userSpaceOnUse" gradientTransform="matrix(-52.2546 -46.0224 52.4286 -117.971 26.0404 105.008)">
<stop stop-color="#DC0C2F"/>
<stop offset="1" stop-color="#DC0C2F" stop-opacity="0.74"/>
</radialGradient>
</defs>
</svg>
